<svg xmlns="http://www.w3.org/2000/svg" width="160" height="39" viewBox="0 0 160 39">
    <g fill="none" fill-rule="evenodd">
        <path fill="#64CCDA" d="M74.648 29.646c-.467.063-1.174.3-2.66.342-2.357.067-4.008-.275-5.937-.99-.867-.32-1.708-1.177-2.356-1.827-.537-.542-1.458-2.053-1.681-3.22-.923-4.816 1.35-8.643 3.01-9.955 2.032-1.605 3.64-2.641 6.964-2.641.795 0 1.444.378 2.203.726.374.171 1.062.663 1.062.663s5.387-2.646 7.174-3.152c-.598-.773-1.678-1.535-2.57-1.98-2.667-1.329-5.79-1.885-8.709-1.391-5.585.945-9.495 5.106-11.325 9.866-1.86 4.842-.604 10.663 4.156 13.393 1.056.606 2.214 1.14 3.415 1.354 1.83.325 3.213.231 5.01 0 .817-.105 2.137-.523 2.459-.716.322-.193.328-.546-.215-.472zm-7.463-8.504a1.74 1.74 0 0 1-.289.022c-1.109 0-2.01-.887-2.01-1.98 0-1.094.901-1.981 2.01-1.981 1.11 0 2.01.887 2.01 1.98 0 .184-.025.363-.074.53l8.291 8.169s.444.369.092.444l-.31-.149-9.72-7.035zM74 18.999l6.03 7.053 6.974-7.053H74zm3-3.008v2.01h7.98V15l-7.98.991zm-1.202-2.713c.239.296.384.5.653.886s.554.846.554.846l7.472-2.003s-.205-.72-.477-1.278c-.307-.63-.725-1.167-.725-1.167l-7.477 2.716z"/>
        <path fill="#EBEBEB" d="M19.028 6c-1.54 0-2.578.614-3.044 2.02l-4.438 14.94L6.998 6H-.001l8.028 24h6.915l9.069-24h-4.983zM47.003 21.995h-5.002c-.825 0-1.462.432-2.013 1C38.796 24.088 37.425 25 36.004 25c-2.98 0-4.988-2.496-4.988-6.018h15.945C47.184 9.975 43.798 6 36.095 6 28.714 6.044 25 9.978 25 17.847S28.668 29.78 36.004 30c5.96 0 9.67-3.109 11-8.005zM36.018 10.992c2.563 0 4.647 1.331 5.012 4H31.007c.4-2.822 2.45-4 5.011-4zM51 0h6v30h-6V0zM116.003 6c1.942.002 3 1.08 3 3.029V30h-6V6h3zM119 4h-6V0h6v4zM110 22.012h-4.378c-.961 0-2.003.424-2.61.992-.994 1.296-2.397 1.984-3.949 1.984-2.826 0-5.04-2.379-5.04-6.968 0-4.59 1.707-6.994 4.977-6.994 1.962 0 3.879 1.473 4.012 2.98H110C108.926 8.979 105.376 6 99.397 6 91.783 6.131 88 10.109 88 18.02c.187 7.955 4.017 11.976 11.49 11.976 5.746.131 9.297-3.167 10.51-7.984zM129.996 6h4.002v.993c0 1.692-1.27 3.002-2.996 3.002h-1.006v13.007c0 .358.054 1.823.489 2.307.434.484.986.688 1.523.688h1.99v4.005h-5.944c-3.02 0-4.054-2.03-4.053-5.018V0h5.995v6zM140.005 33.996V39h3c5.09 0 6.52-1.737 8.022-5.992L160 6h-3.998c-1.552 0-2.627.585-2.992 1.975l-4.51 14.41L143.98 6H137l8.004 22.01c.96 3.232.305 6.004-3.026 6.004l-1.973-.018z"/>
    </g>
</svg>
